<svg viewBox="0 0 64 64" role="img" aria-label="Creekside Haven" xmlns="http://www.w3.org/2000/svg"><rect width="64" height="64" rx="14" fill="#463122"/><circle cx="32" cy="32" r="23" fill="#ddd08a"/><g fill="#1b2420"><rect x="14.4" y="27" width="1.8" height="22" rx="0.9"/><rect x="13.2" y="20.6" width="4.2" height="8" rx="2.1"/><rect x="48" y="26.5" width="1.8" height="22.5" rx="0.9"/><rect x="46.8" y="20" width="4.2" height="8" rx="2.1"/><rect x="28.2" y="41.8" width="1.8" height="7.4" rx="0.9"/><rect x="32.6" y="41.8" width="1.8" height="7.4" rx="0.9"/><ellipse cx="30.4" cy="37.8" rx="8.8" ry="4.6"/><path d="M23.4 35 L14.6 30.2 L22.4 38.4 Z"/><path d="M34.2 20.4 L38.4 18.6 C37 26.6 37.2 31.6 34.6 36 L30.4 34.2 C33.4 30 34 26.4 34.2 20.4 Z"/><circle cx="38.2" cy="18.2" r="3.1"/><path d="M40.6 17 L49.4 19.2 L40.6 20.6 Z"/></g><path d="M15 51.6 q5.5 -2.8 11 0 t11 0 t11 0" stroke="#1b2420" stroke-width="1.8" fill="none" stroke-linecap="round" opacity=".9"/></svg>
